<svg id="Ebene_1" data-name="Ebene 1" xmlns="http://www.w3.org/2000/svg" viewBox="0 0 141.73 59.69"><defs><style>.cls-1{fill:#1a171b;}</style></defs><title>Zeichenfläche 1</title><path class="cls-1" d="M22.55,19c0,4.23-2.85,7-6.85,7s-6.85-2.8-6.85-7a6.54,6.54,0,0,1,6.85-6.85A6.53,6.53,0,0,1,22.55,19m6.58-8.22c-.44-.77-.86-2.6,1.51-4.2L26.2,0a11.86,11.86,0,0,0-4.4,5.16,18.76,18.76,0,0,0-6.1-1C6.45,4.2,0,10.08,0,19S6.45,34,15.7,34s15.7-6,15.7-15a15,15,0,0,0-2.27-8.22m2.28,38c0-8.18-6.27-11-11.32-11-6,0-9.92.32-14.46-2.09L2.75,42.78c2.71,1.67,8,2.67,17.41,2.67a3.3,3.3,0,0,1,3.5,3.42,3.21,3.21,0,0,1-2.46,3.24,3.06,3.06,0,0,1-1,.17h0v7.4c5,0,11.21-3.19,11.21-11M47.08,14.16c3.14-.23,6.33-.34,9.47-.34v-9A115.58,115.58,0,0,0,37.83,6.62V33.29h9.25ZM83.61,19c0,4.23-2.86,7-6.85,7s-6.85-2.8-6.85-7a6.85,6.85,0,1,1,13.7,0m8.85,0c0-8.9-6.4-14.78-15.7-14.78S61.05,10.08,61.05,19s6.46,15,15.71,15,15.7-6,15.7-15M141.73,0h-9.29l-6.08,21.3L120.74,4.85h-6.4l-5.68,16.39L104.11,4.85H94.72l8.91,28.44h8.85l5-14.85,5.08,14.85h8.85Z"/></svg>