<?xml version="1.0" encoding="utf-8"?>
<!-- Generator: Adobe Illustrator 26.0.2, SVG Export Plug-In . SVG Version: 6.00 Build 0)  -->
<svg version="1.1" id="Ebene_1" xmlns="http://www.w3.org/2000/svg" xmlns:xlink="http://www.w3.org/1999/xlink" x="0px" y="0px"
	 viewBox="0 0 37.25 59.69" style="enable-background:new 0 0 37.25 59.69;" xml:space="preserve">
<g>
	<path d="M24.3,18.98c0,4.23-2.85,7.02-6.85,7.02c-4,0-6.85-2.8-6.85-7.02c0-4.11,2.86-6.85,6.85-6.85
		C21.45,12.13,24.3,14.87,24.3,18.98 M30.88,10.76c-0.44-0.77-0.86-2.6,1.51-4.2L27.95,0c-2.17,1.47-3.58,3.27-4.4,5.16
		c-1.84-0.63-3.88-0.96-6.1-0.96c-9.25,0-15.7,5.88-15.7,14.79c0,8.96,6.45,14.96,15.7,14.96c9.31,0,15.7-6,15.7-14.96
		C33.15,15.82,32.34,13.03,30.88,10.76 M33.16,48.73c0-8.18-6.28-10.97-11.32-10.97c-5.96,0-9.92,0.31-14.46-2.1L4.5,42.78
		c2.71,1.66,8.01,2.67,17.4,2.67c2.11,0,3.51,1.42,3.51,3.42c0,1.63-0.97,2.84-2.47,3.24c-0.3,0.1-0.62,0.17-0.98,0.17
		c-0.01,0-0.01,0-0.02,0v7.41C26.91,59.69,33.16,56.5,33.16,48.73"/>
</g>
</svg>
